<?xml version="1.0"?>
<svg xmlns="http://www.w3.org/2000/svg" xmlns:xlink="http://www.w3.org/1999/xlink" version="1.1" id="Capa_1" x="0px" y="0px" viewBox="0 0 15.222 15.222" style="enable-background:new 0 0 15.222 15.222;" xml:space="preserve" width="512px" height="512px" class=""><g><g>
	<g>
		<path d="M13.485,7.377c0,0-8.05,0-10.267,0l0.343-0.244c2.549-1.472,8.188-5.01,8.188-5.01    c0.234-0.136,0.314-0.436,0.18-0.67l-0.49-1.208c-0.136-0.234-0.436-0.314-0.671-0.179L1.49,5.703    C1.256,5.839,1.177,6.14,1.311,6.374L2.2,7.337l0.007,7.395c0,0.271,0.22,0.49,0.49,0.49h10.788c0.271,0,0.49-0.219,0.49-0.49    V7.867C13.975,7.597,13.755,7.377,13.485,7.377z M9.928,7.956L8.414,9.427H6.452l1.472-1.471H9.928z M9.289,1.407l1.74-1.117    l-0.254,1.64L8.994,3.073L9.289,1.407z M6.187,3.316l1.771-1.103L7.64,3.873L5.871,4.977L6.187,3.316z M2.657,6.988l0.297-1.666    l1.757-1.123L4.413,5.863L2.657,6.988z M4.492,7.956h1.961L4.982,9.427H3.021L4.492,7.956z M11.878,9.428H9.885l1.472-1.471h1.947    L11.878,9.428z" data-original="#030104" class="active-path" data-old_color="#FFFFFF" fill="#333333"/>
	</g>
</g></g> </svg>
